<?xml version="1.0" encoding="UTF-8" standalone="no"?>
<svg
   xmlns:dc="http://purl.org/dc/elements/1.1/"
   xmlns:cc="http://creativecommons.org/ns#"
   xmlns:rdf="http://www.w3.org/1999/02/22-rdf-syntax-ns#"
   xmlns:svg="http://www.w3.org/2000/svg"
   xmlns="http://www.w3.org/2000/svg"
   xmlns:sodipodi="http://sodipodi.sourceforge.net/DTD/sodipodi-0.dtd"
   xmlns:inkscape="http://www.inkscape.org/namespaces/inkscape"
   enable-background="new 0 0 55.125 55"
   height="55px"
   id="Layer_1"
   version="1.1"
   viewBox="0 0 55.125 55"
   width="55.125px"
   x="0px"
   xml:space="preserve"
   y="0px"
   inkscape:version="0.48.3.1 r9886"
   sodipodi:docname="package.svg"><metadata
     id="metadata3043"><rdf:RDF><cc:Work
         rdf:about=""><dc:format>image/svg+xml</dc:format><dc:type
           rdf:resource="http://purl.org/dc/dcmitype/StillImage" /></cc:Work></rdf:RDF></metadata><defs
     id="defs3041" /><sodipodi:namedview
     pagecolor="#ffffff"
     bordercolor="#666666"
     borderopacity="1"
     objecttolerance="10"
     gridtolerance="10"
     guidetolerance="10"
     inkscape:pageopacity="1"
     inkscape:pageshadow="2"
     inkscape:window-width="1364"
     inkscape:window-height="725"
     id="namedview3039"
     showgrid="true"
     inkscape:zoom="8"
     inkscape:cx="25.537668"
     inkscape:cy="28.88286"
     inkscape:window-x="0"
     inkscape:window-y="0"
     inkscape:window-maximized="0"
     inkscape:current-layer="layer1"
     showguides="true"
     inkscape:guide-bbox="true"
     showborder="true"><inkscape:grid
       type="xygrid"
       id="grid3045"
       empspacing="5"
       visible="true"
       enabled="true"
       snapvisiblegridlinesonly="true" /><sodipodi:guide
       orientation="0,1"
       position="21.375,63.75"
       id="guide3095" /></sodipodi:namedview><g
     inkscape:groupmode="layer"
     id="layer1"
     inkscape:label="Orig"
     style="display:inline"><rect
       style="fill:#fdd99b;fill-opacity:1"
       id="rect3006"
       width="51"
       height="51"
       x="-53"
       y="2"
       ry="6.1807232"
       transform="scale(-1,1)" /><path
       inkscape:connector-curvature="0"
       d="m 21.272799,37.045483 q 0,-1.107944 -0.809649,-1.917636 -0.80965,-0.809686 -1.917636,-0.809649 -1.107979,3.6e-5 -1.917628,0.809649 -0.80965,0.809613 -0.80965,1.917636 0,1.108022 0.80965,1.917635 0.809649,0.809614 1.917628,0.809649 1.107986,3.6e-5 1.917636,-0.809649 0.809649,-0.809686 0.809649,-1.917635 z M 13.090987,26.136378 h 8.181855 v -5.454569 h -3.366501 q -0.277004,0 -0.468734,0.191772 l -4.154854,4.154854 q -0.191766,0.191765 -0.191766,0.468734 v 0.639209 z m 27.272772,10.909105 q 0,-1.107944 -0.80965,-1.917636 -0.80965,-0.809686 -1.917635,-0.809649 -1.107986,3.6e-5 -1.917636,0.809649 -0.809649,0.809613 -0.809649,1.917636 0,1.108022 0.809649,1.917635 0.80965,0.809614 1.917636,0.809649 1.107985,3.6e-5 1.917635,-0.809649 0.80965,-0.809686 0.80965,-1.917635 z m 5.45457,-23.181866 v 21.818244 q 0,0.319583 -0.08524,0.564634 -0.08524,0.245052 -0.287631,0.394159 -0.202393,0.149114 -0.35158,0.245016 -0.149185,0.09591 -0.500729,0.12786 -0.351543,0.03198 -0.479396,0.04259 -0.12786,0.01069 -0.543315,0 -0.415448,-0.01069 -0.479397,-0.01069 0,2.258515 -1.598009,3.856561 -1.59801,1.598045 -3.85656,1.598009 -2.258552,-3.6e-5 -3.856562,-1.598009 -1.598009,-1.597973 -1.598009,-3.856561 h -8.181854 q 0,2.258515 -1.59801,3.856561 -1.598008,1.598045 -3.856562,1.598009 -2.258541,-3.2e-5 -3.856557,-1.598004 -1.59801,-1.597974 -1.59801,-3.856562 h -1.363621 q -0.06388,0 -0.479395,0.01069 -0.415493,0.01069 -0.543318,0 -0.127816,-0.01069 -0.479394,-0.04259 Q 9.8736003,36.981554 9.72445,36.885674 9.5753064,36.789764 9.372871,36.640654 9.1704416,36.491547 9.08524,36.246495 9.000042,36.001444 9,35.681861 q 0,-0.553979 0.4048281,-0.9588 0.404821,-0.404827 0.9587929,-0.404827 v -6.818191 q 0,-0.170441 -0.01069,-0.745745 -0.01069,-0.575298 0,-0.809649 0.01069,-0.234346 0.05328,-0.735075 0.04259,-0.500729 0.13848,-0.78836 0.09586,-0.28763 0.298299,-0.649872 0.20243,-0.362248 0.479397,-0.639217 l 4.218767,-4.218766 q 0.40483,-0.404821 1.075991,-0.681825 0.671169,-0.277011 1.246473,-0.277011 h 3.40911 v -4.090906 q 0,-0.553972 0.404829,-0.958799 0.404821,-0.404822 0.9588,-0.404822 h 21.818236 q 0.553979,0 0.958801,0.404822 0.404827,0.404827 0.404827,0.958799 z"
       id="path4"
       style="fill:#816647" /></g></svg>