<?xml version="1.0" encoding="UTF-8" standalone="no"?>
<svg
   xmlns:dc="http://purl.org/dc/elements/1.1/"
   xmlns:cc="http://creativecommons.org/ns#"
   xmlns:rdf="http://www.w3.org/1999/02/22-rdf-syntax-ns#"
   xmlns:svg="http://www.w3.org/2000/svg"
   xmlns="http://www.w3.org/2000/svg"
   xmlns:sodipodi="http://sodipodi.sourceforge.net/DTD/sodipodi-0.dtd"
   xmlns:inkscape="http://www.inkscape.org/namespaces/inkscape"
   enable-background="new 0 0 55.125 55"
   height="55px"
   id="Layer_1"
   version="1.1"
   viewBox="0 0 55.125 55"
   width="55.125px"
   x="0px"
   xml:space="preserve"
   y="0px"
   inkscape:version="0.48.4 r9939"
   sodipodi:docname="missing.svg"><metadata
     id="metadata3043"><rdf:RDF><cc:Work
         rdf:about=""><dc:format>image/svg+xml</dc:format><dc:type
           rdf:resource="http://purl.org/dc/dcmitype/StillImage" /></cc:Work></rdf:RDF></metadata><defs
     id="defs3041" /><sodipodi:namedview
     pagecolor="#ffffff"
     bordercolor="#666666"
     borderopacity="1"
     objecttolerance="10"
     gridtolerance="10"
     guidetolerance="10"
     inkscape:pageopacity="1"
     inkscape:pageshadow="2"
     inkscape:window-width="1278"
     inkscape:window-height="703"
     id="namedview3039"
     showgrid="true"
     inkscape:zoom="11.313708"
     inkscape:cx="22.254646"
     inkscape:cy="27.69536"
     inkscape:window-x="0"
     inkscape:window-y="48"
     inkscape:window-maximized="0"
     inkscape:current-layer="layer1"
     showguides="true"
     inkscape:guide-bbox="true"
     showborder="true"><inkscape:grid
       type="xygrid"
       id="grid3045"
       empspacing="5"
       visible="true"
       enabled="true"
       snapvisiblegridlinesonly="true" /><sodipodi:guide
       orientation="0,1"
       position="21.375,63.75"
       id="guide3095" /></sodipodi:namedview><g
     inkscape:groupmode="layer"
     id="layer1"
     inkscape:label="Orig"
     style="display:inline"><g
       id="g3018"
       transform="matrix(1.0024382,0,0,1.0033449,-0.06721282,-0.09913801)"
       style="fill:#e5e5e5;fill-opacity:1"><path
         inkscape:connector-curvature="0"
         id="path3014"
         d="M 7.312668,52.88195 C 6.7099324,52.779031 5.4955186,52.338195 5.0176599,52.048855 4.2658562,51.593644 3.2489622,50.517012 2.8351314,49.738115 2.0161815,48.196716 2.062668,49.534599 2.062668,27.506609 2.062668,5.6552305 2.0232307,6.8739053 2.7786566,5.3814313 3.498485,3.9592864 4.8883161,2.803557 6.4312977,2.3440372 7.264056,2.096031 7.5895024,2.09214 27.500168,2.09214 c 19.910665,0 20.236112,0.00389 21.06887,0.2518972 1.542982,0.4595198 2.932812,1.6152492 3.652641,3.0373941 0.755426,1.492474 0.715989,0.2737992 0.715989,22.1251777 0,22.017872 0.04589,20.691205 -0.768746,22.224531 -0.427042,0.803788 -1.433087,1.870171 -2.178743,2.309416 -0.280494,0.16523 -0.842994,0.427244 -1.25,0.582251 l -0.740011,0.281833 -20.1875,0.01534 c -11.103125,0.0084 -20.328125,-0.0087 -20.5,-0.03802 z"
         style="fill:#e5e5e5;fill-opacity:1;stroke:none"
         sodipodi:nodetypes="csssssssssssscscc" /><path
         inkscape:connector-curvature="0"
         id="path3016"
         d="M 24.978969,41.781971 C 16.145314,40.179195 10.799373,30.889246 13.900132,22.52964 c 1.747089,-4.710129 5.756064,-8.166365 10.744487,-9.263088 1.348135,-0.296392 4.362963,-0.296392 5.711098,0 4.894498,1.076073 8.905941,4.469126 10.634216,8.994886 0.585261,1.532597 0.788962,2.39317 0.936335,3.955702 0.698281,7.403629 -4.583521,14.270159 -11.973724,15.566266 -1.266075,0.222047 -3.745807,0.221332 -4.973575,-0.0014 l 0,2e-6 z m -3.452783,-5.086423 c 0.104108,-0.0864 0.415792,-0.633848 0.692631,-1.216546 1.070481,-2.253171 2.963376,-3.511862 5.281351,-3.511862 2.327261,0 4.210227,1.257339 5.291596,3.53343 0.502986,1.058694 0.831835,1.421421 1.333404,1.470764 0.622337,0.06123 0.961284,-0.02897 1.322817,-0.351999 0.785237,-0.701609 0.548547,-2.027396 -0.696221,-3.899794 -1.01576,-1.527921 -2.584326,-2.716596 -4.38378,-3.32207 -3.754919,-1.263443 -7.99672,0.129084 -10.119412,3.32207 -1.189591,1.7894 -1.465414,3.149908 -0.777967,3.837354 0.517901,0.517901 1.517382,0.585317 2.055581,0.138653 l 0,0 z M 23.027949,24.27353 c 1.062891,-0.529661 1.557446,-1.360203 1.562781,-2.624492 0.0074,-1.761863 -1.368456,-3.036782 -3.139072,-2.908708 -2.473463,0.178915 -3.621562,3.064289 -1.968455,4.947074 0.828346,0.943434 2.329588,1.191665 3.544746,0.586126 l 0,0 z m 11.598291,0.08549 c 2.072782,-0.941644 2.229132,-3.980824 0.267195,-5.193796 -1.98621,-1.22798 -4.49363,0.161006 -4.483828,2.483817 0.0036,0.856027 0.137445,1.275425 0.60089,1.883033 0.730373,0.95757 2.458305,1.352759 3.615743,0.826946 l 0,0 z"
         style="fill:#e5e5e5;fill-opacity:1;stroke:none" /></g><path
       inkscape:connector-curvature="0"
       d="m 35.839852,35.087905 q 0.182274,0.569673 -0.09115,1.105131 -0.273431,0.53546 -0.843105,0.717774 -0.569673,0.182315 -1.116536,-0.09116 -0.546864,-0.273471 -0.729179,-0.865874 -0.569672,-1.822906 -2.107742,-2.950848 -1.538069,-1.127941 -3.452132,-1.127941 -1.914063,0 -3.452133,1.127941 -1.538069,1.127942 -2.107742,2.950848 -0.182274,0.592442 -0.717774,0.865874 -0.535499,0.273432 -1.105132,0.09116 -0.592442,-0.182274 -0.865874,-0.717774 -0.273432,-0.535498 -0.09116,-1.105131 0.843105,-2.757169 3.144527,-4.443379 2.301421,-1.686209 5.195324,-1.686209 2.893905,0 5.195326,1.686209 2.301421,1.68621 3.144526,4.443379 z M 24.583328,21.666654 q 0,1.207693 -0.85451,2.062163 -0.854509,0.85447 -2.062163,0.854509 -1.207654,4e-5 -2.062164,-0.854509 -0.85451,-0.854549 -0.85451,-2.062163 0,-1.207615 0.85451,-2.062165 0.85451,-0.854549 2.062164,-0.854509 1.207654,4e-5 2.062163,0.854509 0.85451,0.85447 0.85451,2.062165 z m 11.666692,0 q 0,1.207693 -0.85451,2.062163 -0.85451,0.85447 -2.062163,0.854509 -1.207654,4e-5 -2.062163,-0.854509 -0.85451,-0.854549 -0.85451,-2.062163 0,-1.207615 0.85451,-2.062165 0.854509,-0.854549 2.062163,-0.854509 1.207653,4e-5 2.062163,0.854509 0.85451,0.85447 0.85451,2.062165 z M 42.083327,27.5 q 0,-2.962252 -1.162116,-5.662437 -1.162115,-2.700184 -3.110352,-4.648422 -1.948238,-1.948237 -4.648421,-3.110352 -2.700185,-1.162116 -5.662437,-1.162116 -2.962252,0 -5.662437,1.162116 -2.700184,1.162115 -4.648422,3.110352 -1.948237,1.948238 -3.110352,4.648422 -1.162116,2.700185 -1.162116,5.662437 0,2.962252 1.162116,5.662437 1.162115,2.700184 3.110352,4.648422 1.948238,1.948237 4.648422,3.110352 2.700185,1.162115 5.662437,1.162115 2.962252,0 5.662437,-1.162115 2.700183,-1.162115 4.648421,-3.110352 1.948237,-1.948238 3.110352,-4.648422 Q 42.083327,30.462252 42.083327,27.5 z M 45,27.5 q 0,4.762388 -2.347001,8.784194 Q 40.306,40.306 36.284194,42.653 32.262389,45 27.500001,45 22.737613,45 18.715807,42.653 14.694002,40.306 12.347001,36.284194 10,32.262388 10,27.5 10,22.737612 12.347001,18.715806 14.694002,14.694 18.715807,12.347 q 4.021806,-2.3470003 8.784194,-2.3470003 4.762388,0 8.784193,2.3470003 4.021806,2.347 6.368805,6.368806 Q 45,22.737612 45,27.5 z"
       id="path3844"
       style="fill:#ffffff;fill-opacity:1" /></g></svg>