<?xml version="1.0" encoding="UTF-8" standalone="no"?>
<svg
   xmlns:dc="http://purl.org/dc/elements/1.1/"
   xmlns:cc="http://creativecommons.org/ns#"
   xmlns:rdf="http://www.w3.org/1999/02/22-rdf-syntax-ns#"
   xmlns:svg="http://www.w3.org/2000/svg"
   xmlns="http://www.w3.org/2000/svg"
   xmlns:sodipodi="http://sodipodi.sourceforge.net/DTD/sodipodi-0.dtd"
   xmlns:inkscape="http://www.inkscape.org/namespaces/inkscape"
   enable-background="new 0 0 55.125 55"
   height="48"
   id="Layer_1"
   version="1.1"
   viewBox="0 0 48 48"
   width="48"
   x="0px"
   xml:space="preserve"
   y="0px"
   inkscape:version="0.48.4 r9939"
   sodipodi:docname="missing-avatar.svg"><metadata
     id="metadata3043"><rdf:RDF><cc:Work
         rdf:about=""><dc:format>image/svg+xml</dc:format><dc:type
           rdf:resource="http://purl.org/dc/dcmitype/StillImage" /></cc:Work></rdf:RDF></metadata><defs
     id="defs3041" /><sodipodi:namedview
     pagecolor="#ffffff"
     bordercolor="#666666"
     borderopacity="1"
     objecttolerance="10"
     gridtolerance="10"
     guidetolerance="10"
     inkscape:pageopacity="1"
     inkscape:pageshadow="2"
     inkscape:window-width="1278"
     inkscape:window-height="767"
     id="namedview3039"
     showgrid="true"
     inkscape:zoom="11.313708"
     inkscape:cx="28.548989"
     inkscape:cy="23.881768"
     inkscape:window-x="0"
     inkscape:window-y="0"
     inkscape:window-maximized="0"
     inkscape:current-layer="layer1"
     showguides="true"
     inkscape:guide-bbox="true"
     showborder="true"><inkscape:grid
       type="xygrid"
       id="grid3045"
       empspacing="5"
       visible="true"
       enabled="true"
       snapvisiblegridlinesonly="true" /></sodipodi:namedview><g
     inkscape:groupmode="layer"
     id="layer1"
     inkscape:label="Orig"
     style="display:inline"
     transform="translate(0,-7)"><rect
       style="fill:#aaaaaa;fill-opacity:1;fill-rule:nonzero;stroke:none"
       id="rect3756"
       width="48"
       height="48"
       x="0"
       y="7" /><path
       inkscape:connector-curvature="0"
       d="m 9.0000366,41.604171 q 0,-1.104176 0.072914,-2.156252 0.072914,-1.052079 0.2916633,-2.270844 0.2187481,-1.218764 0.5520836,-2.260414 0.3333346,-1.041649 0.8958076,-2.031237 0.562474,-0.989589 1.291668,-1.68751 0.729197,-0.69792 1.781227,-1.114567 1.05203,-0.416644 2.322882,-0.416682 0.187503,0 0.874991,0.447927 0.687487,0.447927 1.55205,1.000015 0.864565,0.552087 2.249966,1.000015 1.385402,0.447926 2.781231,0.447926 1.395829,0 2.781231,-0.447926 1.3854,-0.447928 2.249966,-1.000015 0.864564,-0.552088 1.552051,-1.000015 0.687488,-0.447927 0.87499,-0.447927 1.270816,0 2.322882,0.416682 1.052066,0.416682 1.781227,1.114567 0.729158,0.697885 1.291669,1.68751 0.562508,0.989622 0.895807,2.031237 0.333299,1.041614 0.552083,2.260414 0.218784,1.218802 0.291664,2.270844 0.07288,1.05204 0.07291,2.156252 0,2.499982 -1.520807,3.947924 Q 35.291391,47.000037 32.770578,47 H 14.562425 Q 12.041613,47 10.520807,45.552095 9,44.104189 9,41.604171 z M 15.666627,23.00001 q 0,-3.312493 2.343736,-5.656251 Q 20.354099,15 23.666558,15 q 3.31246,0 5.656196,2.343759 2.343735,2.343758 2.343735,5.656251 0,3.312491 -2.343735,5.65625 -2.343736,2.343758 -5.656196,2.343758 -3.312459,0 -5.656195,-2.343758 -2.343736,-2.343759 -2.343736,-5.65625 z"
       id="path2992"
       style="fill:#ffffff;fill-opacity:1" /></g></svg>