<?xml version="1.0" encoding="UTF-8" standalone="no"?>
<svg
   xmlns:dc="http://purl.org/dc/elements/1.1/"
   xmlns:cc="http://creativecommons.org/ns#"
   xmlns:rdf="http://www.w3.org/1999/02/22-rdf-syntax-ns#"
   xmlns:svg="http://www.w3.org/2000/svg"
   xmlns="http://www.w3.org/2000/svg"
   xmlns:sodipodi="http://sodipodi.sourceforge.net/DTD/sodipodi-0.dtd"
   xmlns:inkscape="http://www.inkscape.org/namespaces/inkscape"
   enable-background="new 0 0 55.125 55"
   height="55px"
   id="Layer_1"
   version="1.1"
   viewBox="0 0 55.125 55"
   width="55.125px"
   x="0px"
   xml:space="preserve"
   y="0px"
   inkscape:version="0.48.4 r9939"
   sodipodi:docname="missing-avatar.svg"><metadata
     id="metadata3043"><rdf:RDF><cc:Work
         rdf:about=""><dc:format>image/svg+xml</dc:format><dc:type
           rdf:resource="http://purl.org/dc/dcmitype/StillImage" /></cc:Work></rdf:RDF></metadata><defs
     id="defs3041" /><sodipodi:namedview
     pagecolor="#ffffff"
     bordercolor="#666666"
     borderopacity="1"
     objecttolerance="10"
     gridtolerance="10"
     guidetolerance="10"
     inkscape:pageopacity="1"
     inkscape:pageshadow="2"
     inkscape:window-width="1278"
     inkscape:window-height="767"
     id="namedview3039"
     showgrid="true"
     inkscape:zoom="7.9999996"
     inkscape:cx="37.829168"
     inkscape:cy="27.69536"
     inkscape:window-x="0"
     inkscape:window-y="0"
     inkscape:window-maximized="0"
     inkscape:current-layer="layer1"
     showguides="true"
     inkscape:guide-bbox="true"
     showborder="true"><inkscape:grid
       type="xygrid"
       id="grid3045"
       empspacing="5"
       visible="true"
       enabled="true"
       snapvisiblegridlinesonly="true" /><sodipodi:guide
       orientation="0,1"
       position="21.375,63.75"
       id="guide3095" /></sodipodi:namedview><g
     inkscape:groupmode="layer"
     id="layer1"
     inkscape:label="Orig"
     style="display:inline"><g
       id="g3018"
       transform="matrix(1.0024382,0,0,1.0033449,-0.06721282,-0.09913801)"
       style="fill:#e5e5e5;fill-opacity:1"><path
         inkscape:connector-curvature="0"
         id="path3014"
         d="M 7.312668,52.88195 C 6.7099324,52.779031 5.4955186,52.338195 5.0176599,52.048855 4.2658562,51.593644 3.2489622,50.517012 2.8351314,49.738115 2.0161815,48.196716 2.062668,49.534599 2.062668,27.506609 2.062668,5.6552305 2.0232307,6.8739053 2.7786566,5.3814313 3.498485,3.9592864 4.8883161,2.803557 6.4312977,2.3440372 7.264056,2.096031 7.5895024,2.09214 27.500168,2.09214 c 19.910665,0 20.236112,0.00389 21.06887,0.2518972 1.542982,0.4595198 2.932812,1.6152492 3.652641,3.0373941 0.755426,1.492474 0.715989,0.2737992 0.715989,22.1251777 0,22.017872 0.04589,20.691205 -0.768746,22.224531 -0.427042,0.803788 -1.433087,1.870171 -2.178743,2.309416 -0.280494,0.16523 -0.842994,0.427244 -1.25,0.582251 l -0.740011,0.281833 -20.1875,0.01534 c -11.103125,0.0084 -20.328125,-0.0087 -20.5,-0.03802 z"
         style="fill:#e5e5e5;fill-opacity:1;stroke:none"
         sodipodi:nodetypes="csssssssssssscscc" /><path
         inkscape:connector-curvature="0"
         id="path3016"
         d="M 24.978969,41.781971 C 16.145314,40.179195 10.799373,30.889246 13.900132,22.52964 c 1.747089,-4.710129 5.756064,-8.166365 10.744487,-9.263088 1.348135,-0.296392 4.362963,-0.296392 5.711098,0 4.894498,1.076073 8.905941,4.469126 10.634216,8.994886 0.585261,1.532597 0.788962,2.39317 0.936335,3.955702 0.698281,7.403629 -4.583521,14.270159 -11.973724,15.566266 -1.266075,0.222047 -3.745807,0.221332 -4.973575,-0.0014 l 0,2e-6 z m -3.452783,-5.086423 c 0.104108,-0.0864 0.415792,-0.633848 0.692631,-1.216546 1.070481,-2.253171 2.963376,-3.511862 5.281351,-3.511862 2.327261,0 4.210227,1.257339 5.291596,3.53343 0.502986,1.058694 0.831835,1.421421 1.333404,1.470764 0.622337,0.06123 0.961284,-0.02897 1.322817,-0.351999 0.785237,-0.701609 0.548547,-2.027396 -0.696221,-3.899794 -1.01576,-1.527921 -2.584326,-2.716596 -4.38378,-3.32207 -3.754919,-1.263443 -7.99672,0.129084 -10.119412,3.32207 -1.189591,1.7894 -1.465414,3.149908 -0.777967,3.837354 0.517901,0.517901 1.517382,0.585317 2.055581,0.138653 l 0,0 z M 23.027949,24.27353 c 1.062891,-0.529661 1.557446,-1.360203 1.562781,-2.624492 0.0074,-1.761863 -1.368456,-3.036782 -3.139072,-2.908708 -2.473463,0.178915 -3.621562,3.064289 -1.968455,4.947074 0.828346,0.943434 2.329588,1.191665 3.544746,0.586126 l 0,0 z m 11.598291,0.08549 c 2.072782,-0.941644 2.229132,-3.980824 0.267195,-5.193796 -1.98621,-1.22798 -4.49363,0.161006 -4.483828,2.483817 0.0036,0.856027 0.137445,1.275425 0.60089,1.883033 0.730373,0.95757 2.458305,1.352759 3.615743,0.826946 l 0,0 z"
         style="fill:#e5e5e5;fill-opacity:1;stroke:none" /></g><path
       inkscape:connector-curvature="0"
       d="m 11.50004,39.098312 q 0,-1.207692 0.07975,-2.358401 0.07975,-1.150711 0.319007,-2.483735 0.239256,-1.333023 0.603842,-2.472328 0.364585,-1.139304 0.979791,-2.221666 0.615205,-1.082362 1.412763,-1.845714 0.797559,-0.76335 1.948218,-1.219057 1.150659,-0.455705 2.540654,-0.455746 0.205082,0 0.957022,0.48992 0.75194,0.48992 1.697557,1.093766 0.945618,0.603846 2.460903,1.093767 1.515284,0.489919 3.041973,0.489919 1.52669,0 3.041974,-0.489919 1.515284,-0.489921 2.460903,-1.093767 0.945617,-0.603846 1.697558,-1.093766 0.75194,-0.48992 0.957021,-0.48992 1.389956,0 2.540654,0.455746 1.150699,0.455746 1.948218,1.219057 0.797518,0.763312 1.412765,1.845714 0.615244,1.0824 0.979789,2.221666 0.364546,1.139265 0.603842,2.472328 0.239295,1.333065 0.319008,2.483735 0.07971,1.150669 0.07975,2.358401 0,2.734355 -1.663384,4.318042 Q 40.256234,45.00004 37.499093,45 H 17.583908 Q 14.826768,45 13.163384,43.416354 11.5,41.832707 11.5,39.098312 z m 7.29159,-20.348301 q 0,-3.623039 2.563463,-6.186525 Q 23.918557,10 27.541562,10 q 3.623006,0 6.18647,2.563486 2.563462,2.563486 2.563462,6.186525 0,3.623037 -2.563462,6.186523 -2.563464,2.563486 -6.18647,2.563486 -3.623005,0 -6.186469,-2.563486 -2.563463,-2.563486 -2.563463,-6.186523 z"
       id="path2992"
       style="fill:#ffffff;fill-opacity:1" /></g></svg>