<?xml version="1.0" encoding="UTF-8" standalone="no"?>
<svg
   xmlns:dc="http://purl.org/dc/elements/1.1/"
   xmlns:cc="http://creativecommons.org/ns#"
   xmlns:rdf="http://www.w3.org/1999/02/22-rdf-syntax-ns#"
   xmlns:svg="http://www.w3.org/2000/svg"
   xmlns="http://www.w3.org/2000/svg"
   xmlns:sodipodi="http://sodipodi.sourceforge.net/DTD/sodipodi-0.dtd"
   xmlns:inkscape="http://www.inkscape.org/namespaces/inkscape"
   enable-background="new 0 0 55.125 55"
   height="55px"
   id="Layer_1"
   version="1.1"
   viewBox="0 0 55.125 55"
   width="55.125px"
   x="0px"
   xml:space="preserve"
   y="0px"
   inkscape:version="0.48.4 r9939"
   sodipodi:docname="package.svg"><metadata
     id="metadata3043"><rdf:RDF><cc:Work
         rdf:about=""><dc:format>image/svg+xml</dc:format><dc:type
           rdf:resource="http://purl.org/dc/dcmitype/StillImage" /></cc:Work></rdf:RDF></metadata><defs
     id="defs3041" /><sodipodi:namedview
     pagecolor="#ffffff"
     bordercolor="#666666"
     borderopacity="1"
     objecttolerance="10"
     gridtolerance="10"
     guidetolerance="10"
     inkscape:pageopacity="1"
     inkscape:pageshadow="2"
     inkscape:window-width="1278"
     inkscape:window-height="751"
     id="namedview3039"
     showgrid="true"
     inkscape:zoom="8"
     inkscape:cx="25.537668"
     inkscape:cy="24.13286"
     inkscape:window-x="0"
     inkscape:window-y="0"
     inkscape:window-maximized="0"
     inkscape:current-layer="layer1"
     showguides="true"
     inkscape:guide-bbox="true"
     showborder="true"><inkscape:grid
       type="xygrid"
       id="grid3045"
       empspacing="5"
       visible="true"
       enabled="true"
       snapvisiblegridlinesonly="true" /></sodipodi:namedview><g
     inkscape:groupmode="layer"
     id="layer1"
     inkscape:label="Orig"
     style="display:inline"><rect
       style="fill:#fdd99b;fill-opacity:1"
       id="rect3006"
       width="55"
       height="55"
       x="-55"
       y="0"
       ry="6.6654859"
       transform="scale(-1,1)" /><path
       inkscape:connector-curvature="0"
       d="m 14.5,20.333333 v -4.166667 q 0,-0.423177 0.309241,-0.732421 Q 15.118481,15.125 15.541653,15.125 h 24.999694 q 0.423171,0 0.732412,0.309245 0.309241,0.309244 0.309241,0.732421 v 4.166667 q 0,0.423178 -0.309241,0.732422 -0.309241,0.309244 -0.732412,0.309244 H 15.541653 q -0.423172,0 -0.732412,-0.309244 Q 14.5,20.756511 14.5,20.333333 z m 1.041653,18.750001 v -15.625 q 0,-0.423177 0.309241,-0.732424 0.309242,-0.309244 0.732413,-0.309244 h 22.916386 q 0.423171,0 0.732413,0.309244 0.309241,0.309247 0.309241,0.732424 v 15.625 q 0,0.423177 -0.309241,0.732421 Q 39.922864,40.125 39.499693,40.125 H 16.583307 q -0.423171,0 -0.732413,-0.309245 -0.309241,-0.309244 -0.309241,-0.732421 z m 9.374886,-12.500001 q 0,0.423177 0.309241,0.732422 0.30924,0.309244 0.732412,0.309244 h 4.166615 q 0.423173,0 0.732413,-0.309244 0.309241,-0.309245 0.309241,-0.732422 0,-0.423177 -0.309241,-0.732422 -0.30924,-0.309244 -0.732413,-0.309244 h -4.166615 q -0.423172,0 -0.732412,0.309244 -0.309241,0.309245 -0.309241,0.732422 z"
       id="path3098"
       style="fill:#816647" /></g></svg>