<?xml version="1.0" encoding="UTF-8" standalone="no"?>
<!DOCTYPE svg  PUBLIC '-//W3C//DTD SVG 1.1//EN'  'http://www.w3.org/Graphics/SVG/1.1/DTD/svg11.dtd' [
    <!ENTITY stroke_color "#ffffff">
    <!ENTITY fill_color "#000000">
]>
<svg
   xmlns:dc="http://purl.org/dc/elements/1.1/"
   xmlns:cc="http://creativecommons.org/ns#"
   xmlns:rdf="http://www.w3.org/1999/02/22-rdf-syntax-ns#"
   xmlns:svg="http://www.w3.org/2000/svg"
   xmlns="http://www.w3.org/2000/svg"
   xmlns:sodipodi="http://sodipodi.sourceforge.net/DTD/sodipodi-0.dtd"
   xmlns:inkscape="http://www.inkscape.org/namespaces/inkscape"
   enable-background="new 0 0 55.125 55"
   height="55px"
   id="Layer_1"
   version="1.1"
   viewBox="0 0 55.125 55"
   width="55.125px"
   x="0px"
   xml:space="preserve"
   y="0px"
   inkscape:version="0.48.3.1 r9886"
   sodipodi:docname="books.svg"><metadata
     id="metadata3043"><rdf:RDF><cc:Work
         rdf:about=""><dc:format>image/svg+xml</dc:format><dc:type
           rdf:resource="http://purl.org/dc/dcmitype/StillImage" /></cc:Work></rdf:RDF></metadata><defs
     id="defs3041" /><sodipodi:namedview
     pagecolor="#ffff5f"
     bordercolor="#666666"
     borderopacity="1"
     objecttolerance="10"
     gridtolerance="10"
     guidetolerance="10"
     inkscape:pageopacity="1"
     inkscape:pageshadow="2"
     inkscape:window-width="1364"
     inkscape:window-height="725"
     id="namedview3039"
     showgrid="true"
     inkscape:zoom="9.9636364"
     inkscape:cx="18.33272"
     inkscape:cy="27.485017"
     inkscape:window-x="0"
     inkscape:window-y="0"
     inkscape:window-maximized="0"
     inkscape:current-layer="layer1"><inkscape:grid
       type="xygrid"
       id="grid3045"
       empspacing="5"
       visible="true"
       enabled="true"
       snapvisiblegridlinesonly="true" /></sodipodi:namedview><g
     inkscape:groupmode="layer"
     id="layer1"
     inkscape:label="Orig"
     style="display:inline"><rect
       style="fill:&stroke_color;"
       id="rect3006"
       width="51"
       height="51"
       x="2"
       y="2"
       ry="6.1807232" /><path
       inkscape:connector-curvature="0"
       d="m 44.457628,17.975387 q 0.840668,1.298804 0.378314,2.939427 l -5.77965,20.644433 q -0.399316,1.45831 -1.607781,2.449552 Q 36.240046,45.000041 34.873943,45 H 15.475341 q -1.618299,0 -3.121003,-1.219054 -1.502701,-1.219053 -2.091174,-2.99641 -0.5043946,-1.526698 -0.04204,-2.893852 0,-0.09115 0.06304,-0.615248 0.06304,-0.524093 0.08408,-0.843102 0.021,-0.182273 -0.06304,-0.48992 -0.08404,-0.307642 -0.06304,-0.444339 0.04204,-0.25066 0.16812,-0.478512 0.12608,-0.227853 0.346794,-0.535497 0.220714,-0.307646 0.346795,-0.535498 0.483393,-0.865869 0.945749,-2.084963 0.462355,-1.219091 0.630512,-2.084963 0.06305,-0.227852 0.01052,-0.683596 -0.05252,-0.455746 -0.01052,-0.638018 0.06305,-0.250663 0.357276,-0.638018 0.294235,-0.387356 0.357276,-0.524093 0.441356,-0.820292 0.882709,-2.096329 0.441354,-1.276034 0.525434,-2.050789 0.021,-0.205083 -0.05257,-0.729175 -0.07357,-0.524093 0.01052,-0.638018 0.08409,-0.29624 0.462357,-0.695001 0.378277,-0.398762 0.462356,-0.512689 0.399315,-0.592438 0.893227,-1.925457 0.493913,-1.33302 0.577955,-2.198891 0.021,-0.182273 -0.06305,-0.581035 -0.08405,-0.398759 -0.04205,-0.603842 0.04205,-0.182276 0.189157,-0.410167 0.147118,-0.227893 0.378315,-0.524092 0.231196,-0.296199 0.357276,-0.478513 0.168119,-0.273432 0.346795,-0.695002 0.178675,-0.42157 0.315237,-0.797522 0.136562,-0.375952 0.336275,-0.820294 0.199712,-0.444339 0.409834,-0.729173 0.210122,-0.284836 0.556953,-0.535497 0.346831,-0.250661 0.756592,-0.262026 0.409761,-0.01136 0.998307,0.125331 l -0.021,0.06834 Q 22.473973,10 22.747208,10 h 15.993845 q 1.55526,0 2.39593,1.276037 0.84067,1.276035 0.378315,2.962238 l -5.758612,20.644432 q -0.756592,2.711578 -1.502702,3.497697 -0.746109,0.786117 -2.700684,0.786117 H 13.289642 q -0.567472,0 -0.798631,0.341778 -0.231195,0.364588 -0.021,0.979796 0.504396,1.595046 3.026444,1.595046 h 19.398601 q 0.609473,0 1.176945,-0.353182 0.567472,-0.353185 0.735591,-0.945624 l 6.305082,-22.490139 q 0.147118,-0.501282 0.105079,-1.298807 0.798632,0.341779 1.239986,0.979798 z m -22.361969,0.04557 q -0.08408,0.29624 0.04205,0.512688 0.126117,0.216446 0.420354,0.216486 H 35.33634 q 0.273237,0 0.535915,-0.216486 0.262679,-0.216487 0.346795,-0.512688 l 0.441354,-1.45831 q 0.08409,-0.29624 -0.04205,-0.512687 -0.126114,-0.216449 -0.420351,-0.216489 H 23.419725 q -0.273237,0 -0.535916,0.216489 -0.262679,0.216487 -0.346794,0.512687 z m -1.74438,5.83328 q -0.08408,0.29624 0.04205,0.512689 0.126116,0.216446 0.420352,0.216486 h 12.778283 q 0.273235,0 0.535914,-0.216486 0.26268,-0.216489 0.346795,-0.512689 l 0.441354,-1.45831 q 0.08408,-0.29624 -0.04205,-0.512688 -0.126118,-0.216447 -0.420354,-0.216487 h -12.77828 q -0.273234,0 -0.535915,0.216487 -0.262679,0.216489 -0.346794,0.512688 z"
       id="path2990"
       style="fill:&fill_color;" /></g></svg>
