<?xml version="1.0" encoding="UTF-8" standalone="no"?>
<!DOCTYPE svg  PUBLIC '-//W3C//DTD SVG 1.1//EN'  'http://www.w3.org/Graphics/SVG/1.1/DTD/svg11.dtd' [
    <!ENTITY stroke_color "#ffffff">
    <!ENTITY fill_color "#000000">
]>
<svg
   xmlns:dc="http://purl.org/dc/elements/1.1/"
   xmlns:cc="http://creativecommons.org/ns#"
   xmlns:rdf="http://www.w3.org/1999/02/22-rdf-syntax-ns#"
   xmlns:svg="http://www.w3.org/2000/svg"
   xmlns="http://www.w3.org/2000/svg"
   xmlns:sodipodi="http://sodipodi.sourceforge.net/DTD/sodipodi-0.dtd"
   xmlns:inkscape="http://www.inkscape.org/namespaces/inkscape"
   enable-background="new 0 0 55.125 55"
   height="55px"
   id="Layer_1"
   version="1.1"
   viewBox="0 0 55.125 55"
   width="55.125px"
   x="0px"
   xml:space="preserve"
   y="0px"
   inkscape:version="0.48.3.1 r9886"
   sodipodi:docname="groups.svg"><metadata
     id="metadata3043"><rdf:RDF><cc:Work
         rdf:about=""><dc:format>image/svg+xml</dc:format><dc:type
           rdf:resource="http://purl.org/dc/dcmitype/StillImage" /></cc:Work></rdf:RDF></metadata><defs
     id="defs3041" /><sodipodi:namedview
     pagecolor="#ffff5f"
     bordercolor="#666666"
     borderopacity="1"
     objecttolerance="10"
     gridtolerance="10"
     guidetolerance="10"
     inkscape:pageopacity="1"
     inkscape:pageshadow="2"
     inkscape:window-width="1364"
     inkscape:window-height="725"
     id="namedview3039"
     showgrid="true"
     inkscape:zoom="9.9636364"
     inkscape:cx="15.364787"
     inkscape:cy="26.136611"
     inkscape:window-x="0"
     inkscape:window-y="0"
     inkscape:window-maximized="0"
     inkscape:current-layer="layer1"><inkscape:grid
       type="xygrid"
       id="grid3045"
       empspacing="5"
       visible="true"
       enabled="true"
       snapvisiblegridlinesonly="true" /></sodipodi:namedview><g
     inkscape:groupmode="layer"
     id="layer1"
     inkscape:label="Orig"
     style="display:inline"><rect
       style="fill:&stroke_color;"
       id="rect3006"
       width="51"
       height="51"
       x="2"
       y="2"
       ry="6.1807232" /><path
       inkscape:connector-curvature="0"
       d="m 20.80989,27.5 q -2.953112,0.09765 -4.830743,2.500005 h -2.442693 q -1.494787,0 -2.515621,-0.791021 Q 10,28.417965 10,26.894541 q 0,-6.894521 2.260412,-6.894521 0.109389,0 0.792964,0.410156 0.683576,0.410156 1.777334,0.830087 1.09376,0.419932 2.16927,0.419932 1.221365,0 2.424479,-0.449224 -0.09114,0.722662 -0.09114,1.289054 0,2.714858 1.476571,5.000009 z m 19.523435,12.441406 q 0,2.343736 -1.33072,3.701182 Q 37.671885,45.000034 35.466152,45 H 19.533848 q -2.205733,0 -3.536453,-1.357412 -1.330719,-1.357412 -1.330719,-3.701182 0,-1.035165 0.0638,-2.021489 0.0638,-0.986323 0.255209,-2.128916 0.191406,-1.142592 0.483077,-2.119141 0.291671,-0.976547 0.78384,-1.904287 0.492169,-0.927739 1.130221,-1.582041 0.638054,-0.654302 1.55859,-1.044907 0.920536,-0.390605 2.032543,-0.39064 0.182283,0 0.783839,0.419932 0.601559,0.419931 1.330721,0.937515 0.729162,0.517583 1.950525,0.937514 1.221363,0.419933 2.460942,0.419933 1.239578,0 2.460941,-0.419933 1.221363,-0.419931 1.950525,-0.937514 0.729163,-0.517584 1.33072,-0.937515 0.601558,-0.419932 0.783841,-0.419932 1.111974,0 2.032543,0.39064 0.920567,0.39064 1.558588,1.044907 0.638021,0.654268 1.130221,1.582041 0.492203,0.927773 0.783842,1.904287 0.291638,0.976514 0.483077,2.119141 0.191438,1.142628 0.255208,2.128916 0.06377,0.98629 0.0638,2.021489 z M 21.666657,15.00001 q 0,2.070297 -1.367184,3.535171 -1.367183,1.464873 -3.299493,1.464839 -1.932308,-3.5e-5 -3.299491,-1.464839 -1.367183,-1.464805 -1.367183,-3.535171 0,-2.070366 1.367183,-3.535171 Q 15.067672,10.000034 16.99998,10 q 1.93231,-3.4e-5 3.299493,1.464839 1.367184,1.464873 1.367184,3.535171 z m 12.833339,7.499981 q 0,3.105463 -2.05079,5.302738 -2.05079,2.197276 -4.949221,2.197276 -2.898434,0 -4.949224,-2.197276 -2.05079,-2.197275 -2.05079,-5.302738 0,-3.105464 2.05079,-5.30274 2.05079,-2.197276 4.949224,-2.197276 2.898431,0 4.949221,2.197276 2.05079,2.197276 2.05079,5.30274 z M 45,26.894541 q 0,1.523424 -1.020833,2.314443 -1.020834,0.791021 -2.515621,0.791021 H 39.020853 Q 37.143253,27.597652 34.19011,27.5 q 1.476571,-2.285152 1.476571,-5.000009 0,-0.566393 -0.09114,-1.289053 1.203114,0.449223 2.424479,0.449223 1.07551,0 2.16927,-0.419932 1.093758,-0.419931 1.777334,-0.830087 0.683575,-0.410157 0.792964,-0.410157 Q 45,19.999985 45,26.894507 z M 42.666663,15.00001 q 0,2.070297 -1.367183,3.535171 -1.367183,1.464873 -3.299493,1.464839 -1.93231,-3.5e-5 -3.299492,-1.464839 -1.367183,-1.464805 -1.367183,-3.535171 0,-2.070366 1.367183,-3.535171 Q 36.067677,10.000034 37.999987,10 q 1.93231,-3.4e-5 3.299493,1.464839 1.367183,1.464873 1.367183,3.535171 z"
       id="path2988"
       style="fill:&fill_color;" /></g></svg>
