<?xml version="1.0" encoding="UTF-8" standalone="no"?>
<svg
   xmlns:dc="http://purl.org/dc/elements/1.1/"
   xmlns:cc="http://creativecommons.org/ns#"
   xmlns:rdf="http://www.w3.org/1999/02/22-rdf-syntax-ns#"
   xmlns:svg="http://www.w3.org/2000/svg"
   xmlns="http://www.w3.org/2000/svg"
   xmlns:sodipodi="http://sodipodi.sourceforge.net/DTD/sodipodi-0.dtd"
   xmlns:inkscape="http://www.inkscape.org/namespaces/inkscape"
   enable-background="new 0 0 55.125 55"
   height="55px"
   id="Layer_1"
   version="1.1"
   viewBox="0 0 55.125 55"
   width="55.125px"
   x="0px"
   xml:space="preserve"
   y="0px"
   inkscape:version="0.48.3.1 r9886"
   sodipodi:docname="missing.svg"><metadata
     id="metadata3043"><rdf:RDF><cc:Work
         rdf:about=""><dc:format>image/svg+xml</dc:format><dc:type
           rdf:resource="http://purl.org/dc/dcmitype/StillImage" /></cc:Work></rdf:RDF></metadata><defs
     id="defs3041" /><sodipodi:namedview
     pagecolor="#ffffff"
     bordercolor="#666666"
     borderopacity="1"
     objecttolerance="10"
     gridtolerance="10"
     guidetolerance="10"
     inkscape:pageopacity="1"
     inkscape:pageshadow="2"
     inkscape:window-width="1364"
     inkscape:window-height="725"
     id="namedview3039"
     showgrid="true"
     inkscape:zoom="8"
     inkscape:cx="3.412668"
     inkscape:cy="28.88286"
     inkscape:window-x="0"
     inkscape:window-y="0"
     inkscape:window-maximized="0"
     inkscape:current-layer="layer1"
     showguides="true"
     inkscape:guide-bbox="true"
     showborder="true"><inkscape:grid
       type="xygrid"
       id="grid3045"
       empspacing="5"
       visible="true"
       enabled="true"
       snapvisiblegridlinesonly="true" /><sodipodi:guide
       orientation="0,1"
       position="21.375,63.75"
       id="guide3095" /></sodipodi:namedview><g
     inkscape:groupmode="layer"
     id="layer1"
     inkscape:label="Orig"
     style="display:inline"><g
       id="g3018"
       transform="matrix(1.0024382,0,0,1.0033449,-0.06721282,-0.09913801)"
       style="fill:#e5e5e5;fill-opacity:1"><path
         inkscape:connector-curvature="0"
         id="path3014"
         d="M 7.312668,52.88195 C 6.7099324,52.779031 5.4955186,52.338195 5.0176599,52.048855 4.2658562,51.593644 3.2489622,50.517012 2.8351314,49.738115 2.0161815,48.196716 2.062668,49.534599 2.062668,27.506609 2.062668,5.6552305 2.0232307,6.8739053 2.7786566,5.3814313 3.498485,3.9592864 4.8883161,2.803557 6.4312977,2.3440372 7.264056,2.096031 7.5895024,2.09214 27.500168,2.09214 c 19.910665,0 20.236112,0.00389 21.06887,0.2518972 1.542982,0.4595198 2.932812,1.6152492 3.652641,3.0373941 0.755426,1.492474 0.715989,0.2737992 0.715989,22.1251777 0,22.017872 0.04589,20.691205 -0.768746,22.224531 -0.427042,0.803788 -1.433087,1.870171 -2.178743,2.309416 -0.280494,0.16523 -0.842994,0.427244 -1.25,0.582251 l -0.740011,0.281833 -20.1875,0.01534 c -11.103125,0.0084 -20.328125,-0.0087 -20.5,-0.03802 z m 23.674911,-8.174335 c 3.489854,-0.7094 6.352566,-2.252699 8.895104,-4.795381 3.21359,-3.213773 4.905765,-7.022684 5.140214,-11.570094 0.158646,-3.07712 -0.476745,-6.069858 -1.866614,-8.791884 -2.469169,-4.83581 -6.81136,-8.138539 -12.218615,-9.293643 -0.81477,-0.174052 -1.61625,-0.226973 -3.4375,-0.226973 -1.82125,0 -2.62273,0.05292 -3.4375,0.226973 -5.407255,1.155104 -9.749446,4.457833 -12.218615,9.293643 -2.4511324,4.800485 -2.5312113,10.635604 -0.212619,15.492894 2.605326,5.457974 7.892106,9.232251 13.898061,9.921944 1.408629,0.161758 3.99615,0.0397 5.458084,-0.257479 l 0,0 z"
         style="fill:#e5e5e5;fill-opacity:1;stroke:none" /><path
         inkscape:connector-curvature="0"
         id="path3016"
         d="M 24.978969,41.781971 C 16.145314,40.179195 10.799373,30.889246 13.900132,22.52964 c 1.747089,-4.710129 5.756064,-8.166365 10.744487,-9.263088 1.348135,-0.296392 4.362963,-0.296392 5.711098,0 4.894498,1.076073 8.905941,4.469126 10.634216,8.994886 0.585261,1.532597 0.788962,2.39317 0.936335,3.955702 0.698281,7.403629 -4.583521,14.270159 -11.973724,15.566266 -1.266075,0.222047 -3.745807,0.221332 -4.973575,-0.0014 l 0,2e-6 z m -3.452783,-5.086423 c 0.104108,-0.0864 0.415792,-0.633848 0.692631,-1.216546 1.070481,-2.253171 2.963376,-3.511862 5.281351,-3.511862 2.327261,0 4.210227,1.257339 5.291596,3.53343 0.502986,1.058694 0.831835,1.421421 1.333404,1.470764 0.622337,0.06123 0.961284,-0.02897 1.322817,-0.351999 0.785237,-0.701609 0.548547,-2.027396 -0.696221,-3.899794 -1.01576,-1.527921 -2.584326,-2.716596 -4.38378,-3.32207 -3.754919,-1.263443 -7.99672,0.129084 -10.119412,3.32207 -1.189591,1.7894 -1.465414,3.149908 -0.777967,3.837354 0.517901,0.517901 1.517382,0.585317 2.055581,0.138653 l 0,0 z M 23.027949,24.27353 c 1.062891,-0.529661 1.557446,-1.360203 1.562781,-2.624492 0.0074,-1.761863 -1.368456,-3.036782 -3.139072,-2.908708 -2.473463,0.178915 -3.621562,3.064289 -1.968455,4.947074 0.828346,0.943434 2.329588,1.191665 3.544746,0.586126 l 0,0 z m 11.598291,0.08549 c 2.072782,-0.941644 2.229132,-3.980824 0.267195,-5.193796 -1.98621,-1.22798 -4.49363,0.161006 -4.483828,2.483817 0.0036,0.856027 0.137445,1.275425 0.60089,1.883033 0.730373,0.95757 2.458305,1.352759 3.615743,0.826946 l 0,0 z"
         style="fill:#e5e5e5;fill-opacity:1;stroke:none" /></g></g></svg>